<mxfile host="app.diagrams.net" agent="Mozilla/5.0 (Windows NT 10.0; Win64; x64; rv:128.0) Gecko/20100101 Firefox/128.0" version="28.1.1">
  <diagram name="Seite-1" id="zAn8x_V5FlFS47PvoAAh">
    <mxGraphModel dx="913" dy="730" grid="1" gridSize="10" guides="1" tooltips="1" connect="1" arrows="1" fold="1" page="1" pageScale="1" pageWidth="827" pageHeight="1169" math="0" shadow="0">
      <root>
        <mxCell id="0" />
        <mxCell id="1" parent="0" />
        <mxCell id="SV0wmXzuSBIUuRHaVPXr-2" value="&lt;b&gt;&lt;font style=&quot;font-size: 18px;&quot;&gt;Chi-Quadrat-Test: Geschlecht vs. Resultat&lt;/font&gt;&lt;/b&gt;" style="rounded=0;whiteSpace=wrap;html=1;" vertex="1" parent="1">
          <mxGeometry x="180" y="20" width="440" height="80" as="geometry" />
        </mxCell>
        <mxCell id="SV0wmXzuSBIUuRHaVPXr-3" value="mÃ¤nnlich" style="rounded=0;whiteSpace=wrap;html=1;" vertex="1" parent="1">
          <mxGeometry x="180" y="210" width="120" height="60" as="geometry" />
        </mxCell>
        <mxCell id="SV0wmXzuSBIUuRHaVPXr-4" value="weiblich" style="rounded=0;whiteSpace=wrap;html=1;" vertex="1" parent="1">
          <mxGeometry x="180" y="270" width="120" height="60" as="geometry" />
        </mxCell>
        <mxCell id="SV0wmXzuSBIUuRHaVPXr-5" value="geheilt" style="rounded=0;whiteSpace=wrap;html=1;" vertex="1" parent="1">
          <mxGeometry x="300" y="150" width="120" height="60" as="geometry" />
        </mxCell>
        <mxCell id="SV0wmXzuSBIUuRHaVPXr-6" value="gestorben" style="rounded=0;whiteSpace=wrap;html=1;" vertex="1" parent="1">
          <mxGeometry x="420" y="150" width="120" height="60" as="geometry" />
        </mxCell>
        <mxCell id="SV0wmXzuSBIUuRHaVPXr-7" value="80" style="rounded=0;whiteSpace=wrap;html=1;" vertex="1" parent="1">
          <mxGeometry x="300" y="210" width="120" height="60" as="geometry" />
        </mxCell>
        <mxCell id="SV0wmXzuSBIUuRHaVPXr-8" value="82" style="rounded=0;whiteSpace=wrap;html=1;" vertex="1" parent="1">
          <mxGeometry x="300" y="270" width="120" height="60" as="geometry" />
        </mxCell>
        <mxCell id="SV0wmXzuSBIUuRHaVPXr-9" value="9" style="rounded=0;whiteSpace=wrap;html=1;" vertex="1" parent="1">
          <mxGeometry x="420" y="270" width="120" height="60" as="geometry" />
        </mxCell>
        <mxCell id="SV0wmXzuSBIUuRHaVPXr-10" value="10" style="rounded=0;whiteSpace=wrap;html=1;" vertex="1" parent="1">
          <mxGeometry x="420" y="210" width="120" height="60" as="geometry" />
        </mxCell>
        <mxCell id="SV0wmXzuSBIUuRHaVPXr-11" value="Summe" style="rounded=0;whiteSpace=wrap;html=1;" vertex="1" parent="1">
          <mxGeometry x="540" y="150" width="120" height="60" as="geometry" />
        </mxCell>
        <mxCell id="SV0wmXzuSBIUuRHaVPXr-12" value="Summe" style="rounded=0;whiteSpace=wrap;html=1;" vertex="1" parent="1">
          <mxGeometry x="180" y="330" width="120" height="60" as="geometry" />
        </mxCell>
        <mxCell id="SV0wmXzuSBIUuRHaVPXr-13" value="80+10= 90" style="rounded=0;whiteSpace=wrap;html=1;" vertex="1" parent="1">
          <mxGeometry x="540" y="210" width="120" height="60" as="geometry" />
        </mxCell>
        <mxCell id="SV0wmXzuSBIUuRHaVPXr-14" value="82+9 = 91" style="rounded=0;whiteSpace=wrap;html=1;" vertex="1" parent="1">
          <mxGeometry x="540" y="270" width="120" height="60" as="geometry" />
        </mxCell>
        <mxCell id="SV0wmXzuSBIUuRHaVPXr-15" value="80+82= 162" style="rounded=0;whiteSpace=wrap;html=1;" vertex="1" parent="1">
          <mxGeometry x="300" y="330" width="120" height="60" as="geometry" />
        </mxCell>
        <mxCell id="SV0wmXzuSBIUuRHaVPXr-17" value="10+9=19" style="rounded=0;whiteSpace=wrap;html=1;" vertex="1" parent="1">
          <mxGeometry x="420" y="330" width="120" height="60" as="geometry" />
        </mxCell>
        <mxCell id="SV0wmXzuSBIUuRHaVPXr-18" value="91+90 = 181" style="rounded=0;whiteSpace=wrap;html=1;" vertex="1" parent="1">
          <mxGeometry x="540" y="330" width="120" height="60" as="geometry" />
        </mxCell>
      </root>
    </mxGraphModel>
  </diagram>
</mxfile>
